<svg width="193" height="31" viewBox="0 0 193 31" fill="none" xmlns="http://www.w3.org/2000/svg">
<path d="M0 30.5V2.16205H3.39207V15.0429L15.8429 2.16205H20.4721L7.22311 15.8158L20.6317 30.5H15.8829L3.39207 16.8033V30.5H0Z" fill="white"/>
<path d="M23.6946 30.5V2.16205H43.2888V5.51108H27.0867V14.2271H41.3732V17.5762H27.0867V27.151H43.6878V30.5H23.6946Z" fill="white"/>
<path d="M88.2428 30.4848V2.14681H91.6349V27.0928H106.281V30.4848H88.2428Z" fill="white"/>
<path d="M115.18 31C113.318 31 111.855 30.4705 110.79 29.4114C109.726 28.3523 109.194 26.9067 109.194 25.0748C109.194 23.157 109.766 21.6542 110.91 20.5665C112.081 19.4788 113.69 18.9349 115.739 18.9349C117.628 18.9349 119.41 19.3786 121.086 20.2659V19.6219C121.086 16.3015 119.543 14.6413 116.457 14.6413C114.196 14.6413 112.267 15.4284 110.671 17.0028V13.5249C112.214 12.1796 114.289 11.5069 116.896 11.5069C121.871 11.5069 124.359 14.0688 124.359 19.1925V30.4848H121.884L121.406 27.9515C119.889 29.9838 117.814 31 115.18 31ZM115.898 27.8657C118 27.8657 119.729 26.7922 121.086 24.6454V23.1427C119.676 22.3412 118.093 21.9404 116.337 21.9404C113.73 21.9404 112.427 22.928 112.427 24.903C112.427 26.8781 113.584 27.8657 115.898 27.8657Z" fill="white"/>
<path d="M138.435 31C135.907 31 133.899 30.0268 132.409 28.0803L132.05 30.4848H129.576V0H132.848V14.0402C134.285 12.3513 136.173 11.5069 138.515 11.5069C141.015 11.5069 143.064 12.4086 144.66 14.2119C146.283 16.0152 147.095 18.3624 147.095 21.2535C147.095 24.1731 146.283 26.5346 144.66 28.338C143.064 30.1127 140.989 31 138.435 31ZM137.996 27.7368C139.725 27.7368 141.109 27.15 142.146 25.9765C143.21 24.7742 143.742 23.1999 143.742 21.2535C143.742 19.307 143.21 17.747 142.146 16.5734C141.109 15.3712 139.725 14.7701 137.996 14.7701C135.734 14.7701 134.018 15.7576 132.848 17.7327V24.7313C134.045 26.735 135.761 27.7368 137.996 27.7368Z" fill="white"/>
<path d="M160.057 31C157.024 31 154.617 30.1127 152.834 28.338C151.078 26.5633 150.2 24.1588 150.2 21.1247C150.2 18.2336 150.999 15.9151 152.595 14.169C154.218 12.3943 156.359 11.5069 159.02 11.5069C161.521 11.5069 163.529 12.2941 165.046 13.8684C166.562 15.4141 167.32 17.4894 167.32 20.0942C167.32 20.6953 167.267 21.4825 167.161 22.4557H153.632C153.845 24.1445 154.537 25.4612 155.708 26.4058C156.878 27.3504 158.408 27.8227 160.297 27.8227C162.665 27.8227 164.7 27.0212 166.403 25.4183V29.0249C164.726 30.3416 162.611 31 160.057 31ZM153.672 19.4931H164.128C163.942 17.9474 163.396 16.7595 162.492 15.9294C161.614 15.0993 160.443 14.6842 158.98 14.6842C157.517 14.6842 156.319 15.1136 155.388 15.9723C154.484 16.8024 153.912 17.976 153.672 19.4931Z" fill="white"/>
<path d="M171.665 30.4848V0H174.937V30.4848H171.665Z" fill="white"/>
<path d="M185.737 31C182.944 31 180.749 30.3989 179.152 29.1967V25.5042C180.828 27.0785 183.01 27.8657 185.697 27.8657C188.437 27.8657 189.807 27.0212 189.807 25.3324C189.807 24.6741 189.555 24.1731 189.049 23.8296C188.544 23.4861 187.666 23.1856 186.415 22.928L184.26 22.4986C180.961 21.8403 179.312 20.0942 179.312 17.2604C179.312 15.4284 179.911 14.0115 181.108 13.0097C182.332 12.0078 184.048 11.5069 186.256 11.5069C188.65 11.5069 190.552 11.9935 191.962 12.9668V16.5734C190.446 15.2853 188.544 14.6413 186.256 14.6413C183.755 14.6413 182.505 15.4428 182.505 17.0457C182.505 17.6468 182.731 18.1191 183.183 18.4626C183.662 18.7775 184.513 19.0494 185.737 19.2784L187.892 19.7078C189.621 20.0512 190.898 20.6667 191.723 21.554C192.574 22.4127 193 23.615 193 25.1607C193 27.0499 192.375 28.4954 191.124 29.4972C189.901 30.4991 188.105 31 185.737 31Z" fill="white"/>
<g clip-path="url(#clip0_229_2)">
<path d="M49 5.50001C49 4.70436 49.316 3.94129 49.8787 3.37869C50.4413 2.81608 51.2043 2.50001 52 2.50001L78 2.50001C78.7957 2.50001 79.5587 2.81608 80.1214 3.37869C80.684 3.9413 81 4.70436 81 5.50001V7.91601L64.9996 16.852L49 7.91601V5.50001Z" fill="white"/>
<path d="M50 30.852C50 29.8679 50.0002 28.6826 50.0002 27.8996V12.852L65.0001 21.1562L80 12.852V27.8996C80 28.6826 79.9998 30.3599 79.9998 30.852" stroke="white" stroke-width="4"/>
</g>
<defs>
<clipPath id="clip0_229_2">
<rect width="32" height="30" fill="white" transform="translate(49 0.5)"/>
</clipPath>
</defs>
</svg>
