<svg width="193" height="32" viewBox="0 0 193 32" fill="none" xmlns="http://www.w3.org/2000/svg">
<path d="M0 31V2.66205H3.39207V15.5429L15.8429 2.66205H20.4721L7.22311 16.3158L20.6317 31H15.8829L3.39207 17.3033V31H0Z" fill="black"/>
<path d="M23.6946 31V2.66205H43.2888V6.01108H27.0867V14.7271H41.3732V18.0762H27.0867V27.651H43.6878V31H23.6946Z" fill="black"/>
<path d="M88.2428 30.9848V2.64681H91.6349V27.5928H106.281V30.9848H88.2428Z" fill="black"/>
<path d="M115.18 31.5C113.318 31.5 111.855 30.9705 110.79 29.9114C109.726 28.8523 109.194 27.4067 109.194 25.5748C109.194 23.657 109.766 22.1542 110.91 21.0665C112.081 19.9788 113.69 19.4349 115.739 19.4349C117.628 19.4349 119.41 19.8786 121.086 20.7659V20.1219C121.086 16.8015 119.543 15.1413 116.457 15.1413C114.196 15.1413 112.267 15.9284 110.671 17.5028V14.0249C112.214 12.6796 114.289 12.0069 116.896 12.0069C121.871 12.0069 124.359 14.5688 124.359 19.6925V30.9848H121.884L121.406 28.4515C119.889 30.4838 117.814 31.5 115.18 31.5ZM115.898 28.3657C118 28.3657 119.729 27.2922 121.086 25.1454V23.6427C119.676 22.8412 118.093 22.4404 116.337 22.4404C113.73 22.4404 112.427 23.428 112.427 25.403C112.427 27.3781 113.584 28.3657 115.898 28.3657Z" fill="black"/>
<path d="M138.435 31.5C135.907 31.5 133.899 30.5268 132.409 28.5803L132.05 30.9848H129.576V0.5H132.848V14.5402C134.285 12.8513 136.173 12.0069 138.515 12.0069C141.015 12.0069 143.064 12.9086 144.66 14.7119C146.283 16.5152 147.095 18.8624 147.095 21.7535C147.095 24.6731 146.283 27.0346 144.66 28.838C143.064 30.6127 140.989 31.5 138.435 31.5ZM137.996 28.2368C139.725 28.2368 141.109 27.65 142.146 26.4765C143.21 25.2742 143.742 23.6999 143.742 21.7535C143.742 19.807 143.21 18.247 142.146 17.0734C141.109 15.8712 139.725 15.2701 137.996 15.2701C135.734 15.2701 134.018 16.2576 132.848 18.2327V25.2313C134.045 27.235 135.761 28.2368 137.996 28.2368Z" fill="black"/>
<path d="M160.057 31.5C157.024 31.5 154.617 30.6127 152.834 28.838C151.078 27.0633 150.2 24.6588 150.2 21.6247C150.2 18.7336 150.999 16.4151 152.595 14.669C154.218 12.8943 156.359 12.0069 159.02 12.0069C161.521 12.0069 163.529 12.7941 165.046 14.3684C166.562 15.9141 167.32 17.9894 167.32 20.5942C167.32 21.1953 167.267 21.9825 167.161 22.9557H153.632C153.845 24.6445 154.537 25.9612 155.708 26.9058C156.878 27.8504 158.408 28.3227 160.297 28.3227C162.665 28.3227 164.7 27.5212 166.403 25.9183V29.5249C164.726 30.8416 162.611 31.5 160.057 31.5ZM153.672 19.9931H164.128C163.942 18.4474 163.396 17.2595 162.492 16.4294C161.614 15.5993 160.443 15.1842 158.98 15.1842C157.517 15.1842 156.319 15.6136 155.388 16.4723C154.484 17.3024 153.912 18.476 153.672 19.9931Z" fill="black"/>
<path d="M171.665 30.9848V0.5H174.937V30.9848H171.665Z" fill="black"/>
<path d="M185.737 31.5C182.944 31.5 180.749 30.8989 179.152 29.6967V26.0042C180.828 27.5785 183.01 28.3657 185.697 28.3657C188.437 28.3657 189.807 27.5212 189.807 25.8324C189.807 25.1741 189.555 24.6731 189.049 24.3296C188.544 23.9861 187.666 23.6856 186.415 23.428L184.26 22.9986C180.961 22.3403 179.312 20.5942 179.312 17.7604C179.312 15.9284 179.911 14.5115 181.108 13.5097C182.332 12.5078 184.048 12.0069 186.256 12.0069C188.65 12.0069 190.552 12.4935 191.962 13.4668V17.0734C190.446 15.7853 188.544 15.1413 186.256 15.1413C183.755 15.1413 182.505 15.9428 182.505 17.5457C182.505 18.1468 182.731 18.6191 183.183 18.9626C183.662 19.2775 184.513 19.5494 185.737 19.7784L187.892 20.2078C189.621 20.5512 190.898 21.1667 191.723 22.054C192.574 22.9127 193 24.115 193 25.6607C193 27.5499 192.375 28.9954 191.124 29.9972C189.901 30.9991 188.105 31.5 185.737 31.5Z" fill="black"/>
<g clip-path="url(#clip0_228_29)">
<path d="M49 6.00001C49 5.20436 49.316 4.44129 49.8787 3.87869C50.4413 3.31608 51.2043 3.00001 52 3.00001L78 3.00001C78.7957 3.00001 79.5587 3.31608 80.1214 3.87869C80.684 4.4413 81 5.20436 81 6.00001V8.41601L64.9996 17.352L49 8.41601V6.00001Z" fill="black"/>
<path d="M50 31.352C50 30.3679 50.0002 29.1826 50.0002 28.3996V13.352L65.0001 21.6562L80 13.352V28.3996C80 29.1826 79.9998 30.8599 79.9998 31.352" stroke="black" stroke-width="4"/>
</g>
<defs>
<clipPath id="clip0_228_29">
<rect width="32" height="30" fill="white" transform="translate(49 1)"/>
</clipPath>
</defs>
</svg>
